/* XPM */
static char *b9bf034598844985f4f17367717a8f32uHaUbu9NOkqtmwcK[] = {
/* columns rows colors chars-per-pixel */
"48 48 152 2 ",
"   c None",
".  c #BF9E4F",
"X  c #BE9E51",
"o  c #BDA154",
"O  c #BCA25A",
"+  c #BDA564",
"@  c #C09F52",
"#  c #C1A355",
"$  c #C2A65A",
"%  c #C6AA5C",
"&  c #C9AD5E",
"*  c #CBB05F",
"=  c #C5AB62",
"-  c #C9AE62",
";  c #CCB364",
":  c #CDB56A",
">  c #CFB96B",
",  c #D0B767",
"<  c #D1B967",
"1  c #D0B568",
"2  c #D3BC6B",
"3  c #CEBD71",
"4  c #D2BC72",
"5  c #D3BF78",
"6  c #D6C16E",
"7  c #D8C36E",
"8  c #D6C171",
"9  c #DAC573",
"0  c #DDC976",
"q  c #D6C57B",
"w  c #DAC679",
"e  c #DECB79",
"r  c #DFD079",
"t  c #E0CD76",
"y  c #E0CE78",
"u  c #E0CC7A",
"i  c #E1CD7A",
"p  c #E1CE7A",
"a  c #E1CF7A",
"s  c #E0CE7B",
"d  c #E1CF7B",
"f  c #E2CE7B",
"g  c #E1CD79",
"h  c #E1CE7C",
"j  c #E1CF7D",
"k  c #E0CF7E",
"l  c #E1CE7B",
"z  c #E2D07B",
"x  c #E3D17C",
"c  c #E2D07D",
"v  c #E3D07D",
"b  c #E3D17D",
"n  c #E1D17E",
"m  c #E4D17D",
"M  c #E4D27D",
"N  c #E4D17F",
"B  c #E4D27E",
"V  c #E5D37E",
"C  c #E4D27F",
"Z  c #E5D27F",
"A  c #E5D37F",
"S  c #E3D17E",
"D  c #DBCA84",
"F  c #DFCE85",
"G  c #DFCF80",
"H  c #E0CC80",
"J  c #E4D280",
"K  c #E5D380",
"L  c #E5D381",
"P  c #E4D383",
"I  c #E5D383",
"U  c #E6D480",
"Y  c #E7D580",
"T  c #E6D481",
"R  c #E6D581",
"E  c #E7D581",
"W  c #E7D681",
"Q  c #E7D583",
"!  c #E7D682",
"~  c #E7D783",
"^  c #E5D482",
"/  c #E8D682",
"(  c #E8D782",
")  c #E8D783",
"_  c #E9D783",
"`  c #E8D684",
"'  c #E8D784",
"]  c #E7D887",
"[  c #E7DC87",
"{  c #E8D883",
"}  c #E9D884",
"|  c #E9D984",
" . c #EAD884",
".. c #EAD984",
"X. c #EBD984",
"o. c #EADA84",
"O. c #EBDA85",
"+. c #EBDB85",
"@. c #E9D986",
"#. c #EADB86",
"$. c #EBDB86",
"%. c #ECDB85",
"&. c #ECDA86",
"*. c #ECDB86",
"=. c #EDDB87",
"-. c #ECDC86",
";. c #EDDD86",
":. c #ECDC87",
">. c #EDDD87",
",. c #EEDD86",
"<. c #EEDC87",
"1. c #EFDE86",
"2. c #EEDE87",
"3. c #EFDE87",
"4. c #EFDF87",
"5. c #EBDB86",
"6. c #E2D389",
"7. c #E6DB8A",
"8. c #EADB89",
"9. c #EDDD88",
"0. c #EEDE88",
"q. c #EFDF88",
"w. c #EEDE89",
"e. c #EFDF89",
"r. c #EEDE8C",
"t. c #EDDE8A",
"y. c #F0DF88",
"u. c #F0DF89",
"i. c #F0DF8C",
"p. c #EDE087",
"a. c #EEE08F",
"s. c #EEE18B",
"d. c #F0E088",
"f. c #F0E089",
"g. c #F1E089",
"h. c #F0E08A",
"j. c #F1E08A",
"k. c #F0E18A",
"l. c #F1E18A",
"z. c #F0E08B",
"x. c #F1E18B",
"c. c #F2E18A",
"v. c #F2E28A",
"b. c #F2E28B",
"n. c #F3E38B",
"m. c #F1E28C",
"M. c #F3E38C",
"N. c #F2E28D",
"B. c #F1E18B",
"V. c #EEE192",
"C. c #EBE398",
"Z. c #F1E394",
/* pixels */
"                                                                                                ",
"                                                                                                ",
"                                                                                                ",
"                                          T n 0 0 6 >                                           ",
"                                  Z.e.#.T T s 0 6 6 6 < , * &                                   ",
"                              a.N.N.v.:._ V t 0 7 6 6 < , * % % $ $                             ",
"                          #.#.:.s.n.v.:.#.V s 0 7 7 6 * < * % % # @ #                           ",
"                      6.P Q #.:.e.N.N.:.{ T x t t 7 6 6 * * & % $ o @ # O                       ",
"                    F j V T T #.y.g.v.v.&._ V t t 7 6 < < * * % # # . . o o                     ",
"                  D e s V V _ #.:.i.M.v.&. .V f t 7 6 6 < < * & % # . # @ o O                   ",
"                w w 0 e s V _ X.:.y.v.v.y.X.I s t 0 7 6 < < * & % # @ @ @ @ . o                 ",
"              q 8 9 0 0 s V V { X.1.g.v.i.&._ n t 0 7 7 6 < * * & # # @ . . . . O               ",
"              4 8 8 9 t s x V _ { :.g.v.v.=.Q I u t 9 7 6 < < * % # # # X X X X o               ",
"            4 2 2 7 9 9 t s V A X.%.p.v.v.=.' I f t w 7 < < < * & % # # @ X X X X o             ",
"            > 2 7 7 8 t 0 s x V _ X.y.g.v.e.' _ j u 9 9 2 2 < * & % $ # X @ X X X o             ",
"          : : < 2 7 9 9 0 t s V _ { :.y.i.e.8.    s t t 7 2 < , & % $ # @ X X . X o o           ",
"          ; : < < 7 7 9 w t u V A _ X.:.e.r.        e w 8 7 2 , ; & % # # . @ X . X X           ",
"        ; ; ; < 2 2 7 7 9 0 t f V _ { :.i.            e 9 2 2 , ; & % $ o . X . . X X O         ",
"        - ; ; : < 2 7 7 7 t t s n T _ 8.                5 9 2 2 : * % % # @ @ . . X X o         ",
"        = & ; ; < 2 2 7 7 0 t u n J Q                       2 2 4 - - % # # @ @ X . . o         ",
"        & & ; ; < < 2 7 7 9 t e s                             2       % $ @ @ @ X . X X         ",
"        % % & ; , , 2 2 7 w 9 t                                       - % # @ X X X X X         ",
"        % % & * * , 2 2 8 8 9                 C.a.                    - % $ @ X X X . X O       ",
"      - % % & * , , < 2 2 8                 V.Z.e.e.                  - % $ # @ X . X X $       ",
"      = $ $ - - ; ; , < 2                 8.e.N.i.&.7.                - - % # @ X X X X O       ",
"        $ $ % % - ; , :                 7.8.e.N.i.e.#.P                 % = # # X X X X         ",
"        # $ % % - ; ;                 P ' #.8.    r.8._ n                   $ O X X X X         ",
"        # # % % % :                 j I Q Q         #.' T n                 $ $ X X X X         ",
"        # # $ % %                 e h H J             ' T n e                 $ X X X X         ",
"        = @ $ % -               w u e G                 Q J e e               $ $ X X X         ",
"          @ # $ %             9 w w w         8.e.        I n 0 9             $ + X X +         ",
"          $ $ $ %         5 2 8 8 q         8.8.e.a.        H s 0 9 8         $ O X X           ",
"          = $ $ %       4 < 2 8           T #.#.:.:.m.          0 9 8 3       & O O O           ",
"            $ O $     : : : >           J T T #.:.y.v.v.          0 8 6 >     & $ O             ",
"              $ $   - ; ; :           e e V T { +.p.v.s.p.7.        9 8 2 >   - % +             ",
"              = $ % = ; ;         w 0 e j n I T #.:.s.v.v.+.[         4 2 < : = %               ",
"                $ % % =         9 9 9 0 u s V _ { :.p.v.v.:.{ P         2 2 : ;                 ",
"                  = O         3 2 8 9 w 0 s j E { &.:.v.v.v.#._ P         < 1                   ",
"                            : 2 2 7 9 9 t u x V T { :.:.v.e.8._ V z                             ",
"                          : : < 2 2 7 9 w t f m _ { :.y.v.v.:.{ T n e                           ",
"                        : : : : 2 2 4 9 w t s x T T ' e.e.N.e.#.Q J j G                         ",
"                            1 : 2 2 7 8 9 w u s V T #.=.e.r.e.8.Q Q                             ",
"                                4 2 8 8 9 9 u s n I ' =.e.i.N.r.                                ",
"                                    9 8 9 w u s n I ' @.r.a.                                    ",
"                                                                                                ",
"                                                                                                ",
"                                                                                                ",
"                                                                                                "
};
