/* XPM */
static char *_f7cd21b84ba4f37cb3e51d62f01e9b9FFmb7crKFsESFrIA[] = {
/* columns rows colors chars-per-pixel */
"32 32 125 2 ",
"   c None",
".  c #BE9E51",
"X  c #BDA154",
"o  c #BCA25A",
"O  c #C09F52",
"+  c #C1A255",
"@  c #C3A65A",
"#  c #C5AA5C",
"$  c #C9AD5E",
"%  c #CBB05F",
"&  c #C6AB61",
"*  c #C9AE60",
"=  c #CCB363",
"-  c #CCB369",
";  c #CEB96B",
":  c #D0B666",
">  c #D1B867",
",  c #D0B768",
"<  c #D3BC6B",
"1  c #D4BE71",
"2  c #D6C16E",
"3  c #D8C36F",
"4  c #D7C271",
"5  c #DAC572",
"6  c #DECA76",
"7  c #DBC778",
"8  c #DCC779",
"9  c #DCC879",
"0  c #DECB78",
"q  c #DFCB78",
"w  c #DECA79",
"e  c #DFCC79",
"r  c #DFCD79",
"t  c #DFCE79",
"y  c #DFCD7B",
"u  c #DECB79",
"i  c #E0CB78",
"p  c #E0CC78",
"a  c #E1CE79",
"s  c #E0CC7A",
"d  c #E0CE7A",
"f  c #E1CF7A",
"g  c #E3CF7B",
"h  c #E0CC7D",
"j  c #E2CF7C",
"k  c #E1CF7F",
"l  c #E3CF7E",
"z  c #E0CF7C",
"x  c #E3D17B",
"c  c #E3D07C",
"v  c #E3D17D",
"b  c #E2D07E",
"n  c #E2D37E",
"m  c #E4D17D",
"M  c #E5D17E",
"N  c #E5D27E",
"B  c #E5D37F",
"V  c #E3D27E",
"C  c #E1D180",
"Z  c #E3D180",
"A  c #E4D280",
"S  c #E5D380",
"D  c #E5D480",
"F  c #E4D481",
"G  c #E5D481",
"H  c #E6D480",
"J  c #E7D581",
"K  c #E4D783",
"L  c #E7D684",
"P  c #E7D685",
"I  c #E5D482",
"U  c #E8D782",
"Y  c #E8D683",
"T  c #E8D783",
"R  c #E9D783",
"E  c #E9D786",
"W  c #E8D784",
"Q  c #E5D886",
"!  c #E8D883",
"~  c #E9D883",
"^  c #E8DA83",
"/  c #EAD984",
"(  c #EAD985",
")  c #EBD985",
"_  c #EBDB85",
"`  c #E8D887",
"'  c #EADA87",
"]  c #EBDA87",
"[  c #ECDB85",
"{  c #ECDB86",
"}  c #EDDA87",
"|  c #EDDC86",
" . c #ECDC87",
".. c #EEDD86",
"X. c #EFDE87",
"o. c #EBDB86",
"O. c #E5D68D",
"+. c #E9DA8A",
"@. c #ECDC88",
"#. c #EDDD89",
"$. c #ECDE88",
"%. c #EEDE88",
"&. c #EFDE88",
"*. c #EFDF88",
"=. c #EFDF89",
"-. c #ECDF8A",
";. c #EDDE8B",
":. c #EFDF8A",
">. c #ECDE8E",
",. c #EEDE88",
"<. c #F0DF8C",
"1. c #EEE08F",
"2. c #EFE08F",
"3. c #F0E089",
"4. c #F0E08A",
"5. c #F1E18A",
"6. c #F2E18A",
"7. c #F2E28A",
"8. c #F2E28B",
"9. c #F1E18C",
"0. c #F3E38C",
"q. c #F1E38E",
"w. c #F1E18B",
"e. c #EDE191",
"r. c #EEE092",
/* pixels */
"                                                                ",
"                                                                ",
"                          ) v q 3 2 ;                           ",
"                    r.0.2.~ v q 3 < > = $ $                     ",
"                O.) #.0.4.~ B q 3 2 > : # + + +                 ",
"              k B ~ | 4.7.| B a 5 3 > % % # O O X               ",
"            8 r N J [ 3.0.4.U v 6 3 2 : % # + O O X             ",
"          7 5 6 x B ~ | 4.4.) C 6 5 2 > % # + O O X X           ",
"        1 1 5 6 a N U [ 4.7.| J i 5 5 > : $ + + O X . X         ",
"        > 2 3 5 q x J ) | 0.#.L l i 5 < : = @ + O O . .         ",
"      - > < 3 5 6 a B ~ | 4.#.    i 5 < : % # @ O O . . o       ",
"      = = > 2 3 5 a v J ) #.        5 3 > : $ @ O X O . X       ",
"      = = > < 3 5 p a I E             4 < , = @ + O . . X       ",
"      * = : < 2 3 6 r C                 1 <   * + O . . . X     ",
"    & # * = > < 3 5 w                           @ + . . . X     ",
"    & # $ = : < 2             r.#.              @ + . O . X     ",
"    # @ # = = >             #.0.4.~             $ @ O . . X     ",
"    # @ @ = =             L +.1.0.+.J             @ + . . .     ",
"      @ @ $             k J Q     [ Q v             @ . .       ",
"      + @ #           w r             N t           @ . .       ",
"      @ @ @         4 8       +.>.      k 6 4       @ . .       ",
"        o @     ; 1 4       K +.#.0.      6 5 1     & X         ",
"        @ @   - ; ;       y J ~ o.3.3.      5 4 ;   & @         ",
"          @ & = &       7 r v J o.2.7.|       1 < ; &           ",
"          @ # &       4 5 r k J ~ 3.4.3.Q       < ; -           ",
"                    < 2 4 6 r N ~ | 4.4.[ J                     ",
"                - - > < 4 6 i N B | #.4.| J k u                 ",
"                  ; ; < 4 5 6 a B ~ #.4.#.E P                   ",
"                      1 1 5 6 a v ~ | >.0.                      ",
"                              k C                               ",
"                                                                ",
"                                                                "
};
