/* XPM */
static char *_e6cf844c6ee45b1925dfcd51cd4da206L2ESl5Brvbqx1mk[] = {
/* columns rows colors chars-per-pixel */
"16 16 105 2 ",
"   c None",
".  c #BE9D50",
"X  c #BE9E50",
"o  c #BF9E51",
"O  c #BF9F51",
"+  c #BD9F52",
"@  c #BD9E53",
"#  c #BF9E52",
"$  c #BF9F52",
"%  c #BE9F54",
"&  c #BE9F55",
"*  c #C0A152",
"=  c #C0A054",
"-  c #C1A154",
";  c #C0A254",
":  c #C2A356",
">  c #C1A457",
",  c #C2A457",
"<  c #C4A35A",
"1  c #C1A65A",
"2  c #C3A65A",
"3  c #C3A75B",
"4  c #C5AA59",
"5  c #C5A95A",
"6  c #C6A95B",
"7  c #C3A95D",
"8  c #C5A85C",
"9  c #C6AB5E",
"0  c #C8AD5D",
"q  c #C8AD5E",
"w  c #C9AF61",
"e  c #CBB162",
"r  c #CCB161",
"t  c #CEB463",
"y  c #C9B064",
"u  c #CEB565",
"i  c #CFB664",
"p  c #CEB566",
"a  c #CFB566",
"s  c #CCB36B",
"d  c #CBB56A",
"f  c #D1B969",
"g  c #D3BA69",
"h  c #D2BB6C",
"j  c #D0B96E",
"k  c #D2BC6F",
"l  c #D5BE6C",
"z  c #D6BF6C",
"x  c #D5BC6F",
"c  c #D4BE6E",
"v  c #D5BF6E",
"b  c #D6C26E",
"n  c #D8C36F",
"m  c #D9C46E",
"M  c #D7C370",
"N  c #D7C172",
"B  c #D8C171",
"V  c #D9C271",
"C  c #D8C272",
"Z  c #DAC472",
"A  c #DBC673",
"S  c #DCC773",
"D  c #D9C474",
"F  c #DCC873",
"G  c #DCC875",
"H  c #DFCB77",
"J  c #DCCA78",
"K  c #DECB78",
"L  c #DFCB78",
"P  c #DECA7A",
"I  c #DCCB7C",
"U  c #E0CD7A",
"Y  c #E0CF7A",
"T  c #E2CF7B",
"R  c #E0CE7E",
"E  c #E3D07B",
"W  c #E1D07F",
"Q  c #E3D07E",
"!  c #E3D17E",
"~  c #E4D37E",
"^  c #E6D383",
"/  c #E6D481",
"(  c #E6D581",
")  c #E7D581",
"_  c #E6D784",
"`  c #E8D782",
"'  c #E7D882",
"]  c #E8D883",
"[  c #EAD983",
"{  c #EBDA85",
"}  c #EBD986",
"|  c #EDDC86",
" . c #EEDE87",
".. c #E8D888",
"X. c #EBDB8A",
"o. c #EDDD88",
"O. c #EDDF89",
"+. c #EFDE88",
"@. c #EFDF89",
"#. c #ECDD8A",
"$. c #EEDE8B",
"%. c #EDDE8C",
"&. c #EDDE8D",
"*. c #F0E089",
"=. c #F1E08A",
/* pixels */
"                                ",
"            X.T b t             ",
"        _ =.o.T m u 4 ;         ",
"      J ~ | =./ S g 0 ; $       ",
"    k A E [ =.[ J z r : $ $     ",
"    g n H ( o.    B a 4 $ .     ",
"  w u z F Q         k 9 ; . $   ",
"  9 e g B               : $ %   ",
"  8 0 u       o.o.      3 $ %   ",
"  < 9       R     (       : %   ",
"    1   x D   X.&.  U M   1     ",
"    1 y d   I ( o.o.  B j 7     ",
"          z H Q } @.'           ",
"        s k B T [ =.} Q         ",
"            B J / &.            ",
"                                "
};
