<svg width="750" height="520" viewBox="0 0 750 520" fill="none" xmlns="http://www.w3.org/2000/svg">
<g clip-path="url(#clip0_27_2)">
<rect width="750" height="520" fill="black"/>
<g opacity="0.2">
<path d="M878 621.174C813.409 550.824 732.295 503.444 634.518 514.415C503.006 529.089 390.282 617.814 274.746 674.931C216.327 703.798 153.039 728.962 87.0091 729.785C-0.208359 730.813 -71.7239 683.708 -128.84 621.243V617.952C-71.7239 680.348 -0.208359 727.659 87.0091 726.493C153.039 725.739 216.327 700.575 274.746 671.64C390.282 614.523 503.006 525.797 634.518 510.85C732.295 499.948 813.615 547.327 878 617.677V621.174Z" fill="#F1D199"/>
<path d="M878 611.847C813.409 541.497 732.295 494.117 634.518 505.019C503.006 519.761 390.282 608.487 274.746 665.603C216.327 694.47 153.039 719.634 87.0091 720.457C-0.208359 721.417 -71.7239 674.311 -128.84 611.915V608.624C-71.7239 671.02 -0.208359 718.332 87.0091 717.097C153.039 716.343 216.327 691.179 274.746 662.244C390.282 605.196 503.006 516.401 634.518 501.728C732.295 490.826 813.409 538.274 878 608.556V611.847Z" fill="#F1D199"/>
<path d="M878 602.457C813.409 532.107 732.295 484.796 634.518 495.698C503.006 510.371 390.282 599.166 274.746 656.214C216.327 685.081 153.039 710.245 87.0091 711.067C-0.208359 712.096 -71.7239 664.99 -128.84 602.526V599.234C-71.7239 661.631 -0.208359 708.942 87.0091 707.776C153.039 707.022 216.327 681.858 274.746 652.923C390.282 595.806 503.006 507.08 634.518 492.407C732.295 481.436 813.615 528.816 878 599.166V602.457Z" fill="#F1D199"/>
<path d="M878 593.133C813.409 522.783 732.295 475.403 634.518 486.305C503.006 501.047 390.282 589.773 274.746 646.89C216.327 675.757 153.039 700.921 87.0091 701.743C-0.208359 702.841 -71.7239 655.529 -128.84 593.133V589.842C-71.7239 652.238 -0.208359 699.549 87.0091 698.384C153.039 697.629 216.327 672.465 274.746 643.53C390.282 586.276 503.006 497.756 634.518 483.014C732.295 472.112 813.615 519.492 878 589.842V593.133Z" fill="#F1D199"/>
<path d="M878 583.802C813.409 513.452 732.295 466.072 634.518 476.975C503.006 491.717 390.282 580.442 274.746 637.49C216.327 666.426 153.039 691.59 87.0091 692.344C-0.208359 693.304 -71.7239 646.198 -128.84 583.802V580.442C-71.7239 642.907 -0.208359 690.15 87.0091 688.984C153.039 688.23 216.327 663.066 274.746 634.131C390.282 577.083 503.006 488.288 634.518 473.615C732.295 462.85 813.409 510.093 878 580.442V583.802Z" fill="#F1D199"/>
<path d="M878 574.411C813.409 503.993 732.295 456.682 634.518 467.652C503.006 482.326 390.282 571.12 274.746 628.168C216.327 657.035 153.039 682.199 87.0091 683.022C-0.208359 684.05 -71.7239 636.945 -128.84 574.48V571.189C-71.7239 633.585 -0.208359 680.896 87.0091 679.731C153.039 678.976 216.327 653.812 274.746 624.877C390.282 567.76 503.006 479.035 634.518 464.293C732.295 453.39 813.615 500.77 878 571.12V574.411Z" fill="#F1D199"/>
<path d="M878 565.083C813.409 494.733 732.295 447.354 634.518 458.256C503.006 472.998 390.282 561.724 274.746 618.84C216.327 647.707 153.039 672.871 87.0091 673.694C-0.208359 674.585 -71.7239 627.411 -128.84 565.083V561.792C-71.7239 624.188 -0.208359 671.5 87.0091 670.334C153.039 669.58 216.327 644.416 274.746 615.48C390.282 558.432 503.006 469.706 634.518 454.964C732.295 444.062 813.615 491.442 878 561.792V565.083Z" fill="#F1D199"/>
<path d="M878 555.761C813.409 485.411 732.295 438.031 634.518 449.139C503.006 463.606 390.282 552.401 274.746 609.449C216.327 638.315 153.039 663.479 87.0091 664.302C-0.208359 665.331 -71.7239 618.225 -128.84 555.829V552.469C-71.7239 614.934 -0.208359 662.177 87.0091 661.011C153.039 660.257 216.327 635.093 274.746 606.157C390.282 549.11 503.006 460.315 634.518 445.642C732.295 434.671 813.615 482.051 878 552.401V555.761Z" fill="#F1D199"/>
<path d="M878 546.371C813.409 476.021 732.295 428.572 634.518 439.612C503.006 454.285 390.282 543.011 274.746 599.99C216.327 628.857 153.039 654.021 87.0091 654.844C-0.208359 655.872 -71.7239 608.767 -128.84 546.302V543.079C-71.7239 605.476 -0.208359 652.787 87.0091 651.621C153.039 650.867 216.327 625.703 274.746 596.767C390.282 539.651 503.006 450.925 634.518 436.183C732.295 425.281 813.615 472.661 878 543.011V546.371Z" fill="#F1D199"/>
<path d="M878 537.041C813.409 466.691 732.295 419.311 634.518 430.213C503.006 444.955 390.282 533.681 274.746 590.798C216.327 619.664 153.039 644.828 87.0091 645.651C-0.208359 646.611 -71.7239 599.506 -128.84 537.109V533.818C-71.7239 596.214 -0.208359 643.526 87.0091 642.291C153.039 641.537 216.327 616.373 274.746 587.438C390.282 530.39 503.006 441.595 634.518 426.922C732.295 416.02 813.615 463.4 878 533.75V537.041Z" fill="#F1D199"/>
<path d="M878 527.718C813.409 457.299 732.295 409.988 634.518 420.89C503.006 435.426 390.282 524.564 274.746 581.406C216.327 610.273 153.039 635.437 87.0091 636.26C-0.208359 637.288 -71.7239 590.183 -128.84 527.786V524.564C-71.7239 586.823 -0.208359 634.271 87.0091 632.9C153.039 632.146 216.327 606.982 274.746 578.046C390.282 520.998 503.006 432.272 634.518 417.599C732.295 406.628 813.409 454.008 878 524.564V527.718Z" fill="#F1D199"/>
<path d="M878 518.324C813.409 447.974 732.295 400.594 634.518 411.565C503.006 426.238 390.282 514.964 274.746 572.08C216.327 600.947 153.039 626.111 87.0091 626.934C-0.208359 627.963 -71.7239 580.857 -128.84 518.392V515.101C-71.7239 577.497 -0.208359 624.808 87.0091 623.643C153.039 622.889 216.327 597.724 274.746 568.789C390.282 511.673 503.006 422.947 634.518 407.999C732.295 397.097 813.615 444.477 878 514.827V518.324Z" fill="#F1D199"/>
<path d="M878 508.996C813.409 438.646 732.295 391.266 634.518 402.168C503.006 416.91 390.282 505.636 274.746 562.752C216.327 591.619 153.039 616.783 87.0091 617.606C-0.208359 618.566 -71.7239 571.46 -128.84 509.064V505.773C-71.7239 568.169 -0.208359 615.481 87.0091 614.246C153.039 613.492 216.327 588.328 274.746 559.393C390.282 502.345 503.006 413.55 634.518 398.877C732.295 387.975 813.409 435.423 878 505.704V508.996Z" fill="#F1D199"/>
<path d="M878 499.607C813.409 429.257 732.295 381.945 634.518 392.847C503.006 407.521 390.282 496.315 274.746 553.363C216.327 582.23 153.039 607.394 87.0091 608.217C-0.208359 609.245 -71.7239 562.14 -128.84 499.675V496.384C-71.7239 558.78 -0.208359 606.091 87.0091 604.926C153.039 604.171 216.327 579.007 274.746 550.072C390.282 492.956 503.006 404.23 634.518 389.556C732.295 378.585 813.615 425.965 878 496.315V499.607Z" fill="#F1D199"/>
<path d="M878 490.283C813.409 419.933 732.295 372.553 634.518 383.455C503.006 398.197 390.282 486.923 274.746 544.039C216.327 572.906 153.039 598.07 87.0091 598.893C-0.208359 599.99 -71.7239 552.679 -128.84 490.283V486.991C-71.7239 549.387 -0.208359 596.699 87.0091 595.533C153.039 594.779 216.327 569.615 274.746 540.679C390.282 483.426 503.006 394.906 634.518 380.164C732.295 369.262 813.615 416.641 878 486.991V490.283Z" fill="#F1D199"/>
<path d="M878 480.952C813.409 410.602 732.295 363.222 634.518 374.124C503.006 388.866 390.282 477.592 274.746 534.64C216.327 563.575 153.039 588.739 87.0091 589.493C-0.208359 590.453 -71.7239 543.348 -128.84 480.952V477.592C-71.7239 540.057 -0.208359 587.299 87.0091 586.134C153.039 585.379 216.327 560.215 274.746 531.28C390.282 474.232 503.006 385.438 634.518 370.764C732.295 359.999 813.409 407.242 878 477.592V480.952Z" fill="#F1D199"/>
<path d="M878 471.561C813.409 401.142 732.295 353.831 634.518 364.802C503.006 379.475 390.282 468.27 274.746 525.318C216.327 554.184 153.039 579.348 87.0091 580.171C-0.208359 581.2 -71.7239 534.094 -128.84 471.629V468.338C-71.7239 530.734 -0.208359 578.046 87.0091 576.88C153.039 576.126 216.327 550.962 274.746 522.026C390.282 464.91 503.006 376.184 634.518 361.442C732.295 350.54 813.615 397.92 878 468.27V471.561Z" fill="#F1D199"/>
<path d="M878 462.233C813.409 391.883 732.295 344.503 634.518 355.405C503.006 370.147 390.282 458.873 274.746 515.989C216.327 544.856 153.039 570.02 87.0091 570.843C-0.208359 571.735 -71.7239 524.56 -128.84 462.233V458.942C-71.7239 521.338 -0.208359 568.649 87.0091 567.483C153.039 566.661 216.327 541.565 274.746 512.63C390.282 455.582 503.006 366.856 634.518 352.114C732.295 341.212 813.615 388.592 878 458.942V462.233Z" fill="#F1D199"/>
<path d="M878 452.91C813.409 382.56 732.295 335.18 634.518 346.288C503.006 360.756 390.282 449.55 274.746 506.598C216.327 535.465 153.039 560.629 87.0091 561.452C-0.208359 562.48 -71.7239 515.375 -128.84 452.979V449.619C-71.7239 512.083 -0.208359 559.326 87.0091 558.161C153.039 557.406 216.327 532.242 274.746 503.307C390.282 446.259 503.006 357.464 634.518 342.791C732.295 331.82 813.615 379.2 878 449.55V452.91Z" fill="#F1D199"/>
<path d="M878 443.52C813.409 373.17 732.295 325.722 634.518 336.761C503.006 351.434 390.282 440.16 274.746 497.14C216.327 526.006 153.039 551.17 87.0091 551.993C-0.208359 553.022 -71.7239 505.916 -128.84 443.451V440.229C-71.7239 502.625 -0.208359 549.936 87.0091 548.771C153.039 548.016 216.327 522.852 274.746 493.917C390.282 436.8 503.006 348.075 634.518 333.333C732.295 322.43 813.615 369.81 878 440.16V443.52Z" fill="#F1D199"/>
<path d="M878 434.19C813.409 363.84 732.295 316.46 634.518 327.363C503.006 342.105 390.282 430.831 274.746 487.947C216.327 516.814 153.039 541.978 87.0091 542.801C-0.208359 543.761 -71.7239 496.655 -128.84 434.259V430.968C-71.7239 493.364 -0.208359 540.675 87.0091 539.441C153.039 538.687 216.327 513.522 274.746 484.587C390.282 427.539 503.006 338.745 634.518 324.071C732.295 313.169 813.615 360.549 878 430.899V434.19Z" fill="#F1D199"/>
<path d="M878 424.867C813.409 354.449 732.295 307.137 634.518 318.04C503.006 332.576 390.282 421.713 274.746 478.555C216.327 507.422 153.039 532.586 87.0091 533.409C-0.208359 534.438 -71.7239 487.332 -128.84 424.936V421.713C-71.7239 483.972 -0.208359 531.421 87.0091 530.049C153.039 529.295 216.327 504.131 274.746 475.196C390.282 418.148 503.006 329.422 634.518 314.748C732.295 303.778 813.409 351.158 878 421.713V424.867Z" fill="#F1D199"/>
<path d="M878 415.473C813.409 345.123 732.295 297.743 634.518 308.714C503.006 323.387 390.282 412.113 274.746 469.229C216.327 498.096 153.039 523.26 87.0091 524.083C-0.208359 525.112 -71.7239 477.937 -128.84 415.541V412.25C-71.7239 474.646 -0.208359 521.957 87.0091 520.792C153.039 520.038 216.327 494.873 274.746 465.938C390.282 408.822 503.006 320.096 634.518 305.148C732.295 294.246 813.615 341.626 878 411.976V415.473Z" fill="#F1D199"/>
<path d="M878 406.145C813.409 335.795 732.295 288.415 634.518 299.317C503.006 314.059 390.282 402.785 274.746 459.902C216.327 488.769 153.039 513.933 87.0091 514.755C-0.208359 515.715 -71.7239 468.61 -128.84 406.214V402.922C-71.7239 465.319 -0.208359 512.63 87.0091 511.396C153.039 510.641 216.327 485.477 274.746 456.542C390.282 399.494 503.006 310.7 634.518 296.026C732.295 285.124 813.409 332.573 878 402.854V406.145Z" fill="#F1D199"/>
<path d="M878 396.755C813.409 326.406 732.295 279.094 634.518 289.996C503.006 304.67 390.282 393.464 274.746 450.512C216.327 479.379 153.039 504.543 87.0091 505.366C-0.208359 506.394 -71.7239 459.289 -128.84 396.824V393.533C-71.7239 455.929 -0.208359 503.24 87.0091 502.075C153.039 501.32 216.327 476.156 274.746 447.221C390.282 390.104 503.006 301.379 634.518 286.705C732.295 275.734 813.615 323.114 878 393.464V396.755Z" fill="#F1D199"/>
<path d="M878 387.431C813.409 317.082 732.295 269.702 634.518 280.604C503.006 295.346 390.282 384.072 274.746 441.188C216.327 470.055 153.039 495.219 87.0091 496.042C-0.208359 497.139 -71.7239 449.828 -128.84 387.431V384.14C-71.7239 446.536 -0.208359 493.848 87.0091 492.682C153.039 491.928 216.327 466.764 274.746 437.828C390.282 380.575 503.006 292.055 634.518 277.313C732.295 266.41 813.615 313.79 878 384.14V387.431Z" fill="#F1D199"/>
<path d="M878 378.101C813.409 307.751 732.295 260.371 634.518 271.273C503.006 286.015 390.282 374.741 274.746 431.789C216.327 460.725 153.039 485.889 87.0091 486.643C-0.208359 487.603 -71.7239 440.497 -128.84 378.101V374.741C-71.7239 437.206 -0.208359 484.449 87.0091 483.283C153.039 482.529 216.327 457.365 274.746 428.429C390.282 371.382 503.006 282.587 634.518 267.914C732.295 257.149 813.409 304.391 878 374.741V378.101Z" fill="#F1D199"/>
<path d="M878 368.71C813.409 298.292 732.295 250.981 634.518 261.951C503.006 276.625 390.282 365.419 274.746 422.467C216.327 451.334 153.039 476.498 87.0091 477.321C-0.208359 478.349 -71.7239 431.244 -128.84 368.779V365.488C-71.7239 427.884 -0.208359 475.195 87.0091 474.029C153.039 473.275 216.327 448.111 274.746 419.176C390.282 362.059 503.006 273.333 634.518 258.591C732.295 247.689 813.615 295.069 878 365.419V368.71Z" fill="#F1D199"/>
<path d="M878 359.382C813.409 289.032 732.295 241.652 634.518 252.554C503.006 267.296 390.282 356.022 274.746 413.138C216.327 442.005 153.039 467.169 87.0091 467.992C-0.208359 468.883 -71.7239 421.709 -128.84 359.382V356.09C-71.7239 418.487 -0.208359 465.798 87.0091 464.632C153.039 463.809 216.327 438.645 274.746 409.779C390.282 352.731 503.006 264.005 634.518 249.263C732.295 238.361 813.615 285.741 878 356.09V359.382Z" fill="#F1D199"/>
<path d="M878 350.059C813.409 279.709 732.295 232.33 634.518 243.437C503.006 257.905 390.282 346.7 274.746 403.747C216.327 432.614 153.039 457.778 87.0091 458.601C-0.208359 459.63 -71.7239 412.524 -128.84 350.128V346.768C-71.7239 409.233 -0.208359 456.476 87.0091 455.31C153.039 454.556 216.327 429.392 274.746 400.456C390.282 343.408 503.006 254.614 634.518 239.941C732.295 228.97 813.615 276.35 878 346.7V350.059Z" fill="#F1D199"/>
<path d="M878 340.668C813.409 270.318 732.295 222.87 634.518 233.909C503.006 248.582 390.282 337.308 274.746 394.288C216.327 423.154 153.039 448.318 87.0091 449.141C-0.208359 450.17 -71.7239 403.064 -128.84 340.599V337.377C-71.7239 399.773 -0.208359 447.084 87.0091 445.919C153.039 445.164 216.327 420 274.746 391.065C390.282 333.948 503.006 245.223 634.518 230.481C732.295 219.578 813.615 266.958 878 337.308V340.668Z" fill="#F1D199"/>
<path d="M878 331.34C813.409 260.99 732.295 213.61 634.518 224.512C503.006 239.254 390.282 327.98 274.746 385.096C216.327 413.963 153.039 439.127 87.0091 439.95C-0.208359 440.91 -71.7239 393.804 -128.84 331.408V328.117C-71.7239 390.513 -0.208359 437.824 87.0091 436.59C153.039 435.836 216.327 410.672 274.746 381.737C390.282 324.689 503.006 235.894 634.518 221.221C732.295 210.319 813.615 257.699 878 328.048V331.34Z" fill="#F1D199"/>
<path d="M878 322.017C813.409 251.598 732.295 204.287 634.518 215.189C503.006 229.725 390.282 318.863 274.746 375.705C216.327 404.572 153.039 429.736 87.0091 430.558C-0.208359 431.587 -71.7239 384.481 -128.84 322.085V318.863C-71.7239 381.122 -0.208359 428.57 87.0091 427.199C153.039 426.444 216.327 401.28 274.746 372.345C390.282 315.297 503.006 226.571 634.518 211.898C732.295 200.927 813.409 248.307 878 318.863V322.017Z" fill="#F1D199"/>
<path d="M878 312.622C813.409 242.272 732.295 194.892 634.518 205.863C503.006 220.536 390.282 309.262 274.746 366.379C216.327 395.245 153.039 420.41 87.0091 421.232C-0.208359 422.261 -71.7239 375.087 -128.84 312.691V309.399C-71.7239 371.796 -0.208359 419.107 87.0091 417.941C153.039 417.187 216.327 392.023 274.746 363.087C390.282 305.971 503.006 217.245 634.518 202.297C732.295 191.395 813.615 238.775 878 309.125V312.622Z" fill="#F1D199"/>
<path d="M878 303.295C813.409 232.945 732.295 185.565 634.518 196.467C503.006 211.209 390.282 299.935 274.746 357.051C216.327 385.918 153.039 411.082 87.0091 411.905C-0.208359 412.865 -71.7239 365.759 -128.84 303.363V300.003C-71.7239 362.468 -0.208359 409.711 87.0091 408.545C153.039 407.791 216.327 382.627 274.746 353.691C390.282 296.644 503.006 207.849 634.518 193.176C732.295 182.274 813.409 229.722 878 299.935V303.295Z" fill="#F1D199"/>
<path d="M878 293.905C813.409 223.555 732.295 176.244 634.518 187.146C503.006 201.819 390.282 290.614 274.746 347.662C216.327 376.528 153.039 401.692 87.0091 402.515C-0.208359 403.544 -71.7239 356.438 -128.84 293.973V290.682C-71.7239 353.078 -0.208359 400.39 87.0091 399.224C153.039 398.47 216.327 373.306 274.746 344.37C390.282 287.254 503.006 198.528 634.518 183.855C732.295 172.884 813.615 220.264 878 290.614V293.905Z" fill="#F1D199"/>
<path d="M878 284.581C813.409 214.231 732.295 166.851 634.518 177.753C503.006 192.495 390.282 281.221 274.746 338.338C216.327 367.204 153.039 392.368 87.0091 393.191C-0.208359 394.288 -71.7239 346.977 -128.84 284.581V281.29C-71.7239 343.686 -0.208359 390.997 87.0091 389.831C153.039 389.077 216.327 363.913 274.746 334.978C390.282 277.724 503.006 189.204 634.518 174.462C732.295 163.56 813.615 210.94 878 281.29V284.581Z" fill="#F1D199"/>
<path d="M878 275.251C813.409 204.901 732.295 157.521 634.518 168.423C503.006 183.165 390.282 271.891 274.746 328.939C216.327 357.874 153.039 382.97 87.0091 383.792C-0.208359 384.752 -71.7239 337.647 -128.84 275.251V271.891C-71.7239 334.355 -0.208359 381.598 87.0091 380.433C153.039 379.678 216.327 354.514 274.746 325.579C390.282 268.531 503.006 179.736 634.518 165.063C732.295 154.298 813.409 201.541 878 271.891V275.251Z" fill="#F1D199"/>
<path d="M878 265.86C813.409 195.441 732.295 148.13 634.518 159.101C503.006 173.774 390.282 262.568 274.746 319.616C216.327 348.483 153.039 373.647 87.0091 374.47C-0.208359 375.499 -71.7239 328.393 -128.84 265.928V262.637C-71.7239 325.033 -0.208359 372.345 87.0091 371.179C153.039 370.425 216.327 345.26 274.746 316.325C390.282 259.209 503.006 170.483 634.518 155.741C732.295 144.839 813.615 192.219 878 262.569V265.86Z" fill="#F1D199"/>
<path d="M878 256.531C813.409 186.181 732.295 138.801 634.518 149.703C503.006 164.445 390.282 253.171 274.746 310.288C216.327 339.155 153.039 364.319 87.0091 365.141C-0.208359 366.033 -71.7239 318.859 -128.84 256.531V253.24C-71.7239 315.636 -0.208359 362.947 87.0091 361.713C153.039 360.959 216.327 335.795 274.746 306.859C390.282 249.88 503.006 161.154 634.518 146.412C732.295 135.51 813.615 182.89 878 253.24V256.531Z" fill="#F1D199"/>
<path d="M878 247.208C813.409 176.858 732.295 129.478 634.518 140.586C503.006 155.054 390.282 243.849 274.746 300.896C216.327 329.763 153.039 354.927 87.0091 355.75C-0.208359 356.779 -71.7239 309.673 -128.84 247.277V243.917C-71.7239 306.382 -0.208359 353.625 87.0091 352.459C153.039 351.705 216.327 326.541 274.746 297.605C390.282 240.489 503.006 151.763 634.518 137.089C732.295 126.119 813.615 173.499 878 243.849V247.208Z" fill="#F1D199"/>
<path d="M878 237.818C813.409 167.469 732.295 120.02 634.518 131.059C503.006 145.733 390.282 234.459 274.746 291.438C216.327 320.305 153.039 345.469 87.0091 346.292C-0.208359 347.32 -71.7239 300.214 -128.84 237.75V234.527C-71.7239 296.923 -0.208359 344.235 87.0091 343.069C153.039 342.315 216.327 317.151 274.746 288.215C390.282 231.099 503.006 142.373 634.518 127.631C732.295 116.729 813.615 164.109 878 234.459V237.818Z" fill="#F1D199"/>
<path d="M878 228.489C813.409 158.139 732.295 110.759 634.518 121.661C503.006 136.403 390.282 225.129 274.746 282.246C216.327 311.113 153.039 336.277 87.0091 337.099C-0.208359 338.059 -71.7239 290.954 -128.84 228.558V225.266C-71.7239 287.663 -0.208359 334.974 87.0091 333.74C153.039 332.985 216.327 307.821 274.746 278.886C390.282 221.838 503.006 133.044 634.518 118.37C732.295 107.468 813.615 154.848 878 225.198V228.489Z" fill="#F1D199"/>
<path d="M878 219.166C813.409 148.748 732.295 101.436 634.518 112.338C503.006 126.875 390.282 216.012 274.746 272.854C216.327 301.721 153.039 326.885 87.0091 327.708C-0.208359 328.736 -71.7239 281.631 -128.84 219.235V216.012C-71.7239 278.271 -0.208359 325.719 87.0091 324.348C153.039 323.594 216.327 298.43 274.746 269.494C390.282 212.447 503.006 123.721 634.518 109.047C732.295 98.0765 813.409 145.456 878 216.012V219.166Z" fill="#F1D199"/>
<path d="M878 209.771C813.409 139.422 732.295 92.0417 634.518 103.012C503.006 117.686 390.282 206.412 274.746 263.528C216.327 292.395 153.039 317.559 87.0091 318.382C-0.208359 319.41 -71.7239 272.236 -128.84 209.84V206.549C-71.7239 268.945 -0.208359 316.256 87.0091 315.091C153.039 314.336 216.327 289.172 274.746 260.237C390.282 203.12 503.006 114.395 634.518 99.4469C732.295 88.5447 813.615 135.925 878 206.275V209.771Z" fill="#F1D199"/>
<path d="M878 200.444C813.409 130.094 732.295 82.7142 634.518 93.6164C503.006 108.358 390.282 197.084 274.746 254.201C216.327 283.067 153.039 308.232 87.0091 309.054C-0.208359 310.014 -71.7239 262.909 -128.84 200.513V197.153C-71.7239 259.617 -0.208359 306.86 87.0091 305.695C153.039 304.94 216.327 279.776 274.746 250.841C390.282 193.793 503.006 104.999 634.518 90.3251C732.295 79.423 813.409 126.871 878 197.084V200.444Z" fill="#F1D199"/>
<path d="M878 191.054C813.409 120.704 732.295 73.393 634.518 84.2952C503.006 98.9686 390.282 187.763 274.746 244.811C216.327 273.678 153.039 298.842 87.0091 299.665C-0.208359 300.693 -71.7239 253.588 -128.84 191.123V187.832C-71.7239 250.228 -0.208359 297.539 87.0091 296.373C153.039 295.619 216.327 270.455 274.746 241.52C390.282 184.403 503.006 95.6774 634.518 81.004C732.295 70.0332 813.615 117.413 878 187.763V191.054Z" fill="#F1D199"/>
<path d="M878 181.73C813.409 111.38 732.295 64.0005 634.518 74.9027C503.006 89.6446 390.282 178.371 274.746 235.487C216.327 264.354 153.039 289.518 87.0091 290.341C-0.208359 291.438 -71.7239 244.126 -128.84 181.73V178.439C-71.7239 240.835 -0.208359 288.147 87.0091 286.981C153.039 286.227 216.327 261.063 274.746 232.127C390.282 174.874 503.006 86.3534 634.518 71.6115C732.295 60.7093 813.615 108.089 878 178.439V181.73Z" fill="#F1D199"/>
<path d="M878 172.402C813.409 102.053 732.295 54.6727 634.518 65.5748C503.006 80.3168 390.282 169.043 274.746 226.091C216.327 255.026 153.039 280.121 87.0091 280.944C-0.208359 281.904 -71.7239 234.799 -128.84 172.402V169.043C-71.7239 231.507 -0.208359 278.75 87.0091 277.584C153.039 276.83 216.327 251.666 274.746 222.731C390.282 165.751 503.006 76.957 634.518 62.2836C732.295 51.45 813.409 98.6928 878 169.043V172.402Z" fill="#F1D199"/>
<path d="M878 163.009C813.409 92.5902 732.295 45.2788 634.518 56.2496C503.006 70.9229 390.282 159.717 274.746 216.765C216.327 245.632 153.039 270.796 87.0091 271.619C-0.208359 272.648 -71.7239 225.542 -128.84 163.077V159.786C-71.7239 222.182 -0.208359 269.493 87.0091 268.328C153.039 267.574 216.327 242.409 274.746 213.474C390.282 156.358 503.006 67.6317 634.518 52.8898C732.295 41.9876 813.615 89.3675 878 159.717V163.009Z" fill="#F1D199"/>
<path d="M878 153.681C813.409 83.3306 732.295 35.9507 634.518 46.8529C503.006 61.5948 390.282 150.321 274.746 207.437C216.327 236.304 153.039 261.468 87.0091 262.291C-0.208359 263.182 -71.7239 216.008 -128.84 153.681V150.389C-71.7239 212.785 -0.208359 260.097 87.0091 258.863C153.039 258.108 216.327 232.944 274.746 204.009C390.282 147.03 503.006 58.3036 634.518 43.5617C732.295 32.6595 813.409 80.0394 878 150.389V153.681Z" fill="#F1D199"/>
<path d="M878 144.358C813.409 74.0078 732.295 26.6279 634.518 37.7358C503.006 52.2034 390.282 140.998 274.746 198.046C216.327 226.913 153.039 252.077 87.0091 252.9C-0.208359 253.928 -71.7239 206.822 -128.84 144.426V141.066C-71.7239 203.531 -0.208359 250.774 87.0091 249.608C153.039 248.854 216.327 223.69 274.746 194.755C390.282 137.638 503.006 48.9122 634.518 34.2389C732.295 23.2681 813.409 70.648 878 140.998V144.358Z" fill="#F1D199"/>
<path d="M878 134.965C813.409 64.6153 732.295 17.1668 634.518 28.2061C503.006 42.8795 390.282 131.605 274.746 188.585C216.327 217.451 153.039 242.616 87.0091 243.438C-0.208359 244.467 -71.7239 197.361 -128.84 134.897V131.674C-71.7239 194.07 -0.208359 241.381 87.0091 240.216C153.039 239.462 216.327 214.297 274.746 185.362C390.282 128.314 503.006 39.5883 634.518 24.8463C732.295 13.9441 813.409 61.3241 878 131.674V134.965Z" fill="#F1D199"/>
<path d="M878 125.638C813.409 55.2881 732.295 7.90822 634.518 18.8104C503.006 33.5523 390.282 122.278 274.746 179.395C216.327 208.261 153.039 233.426 87.0091 234.248C-0.208359 235.208 -71.7239 188.103 -128.84 125.707V122.415C-71.7239 184.811 -0.208359 232.123 87.0091 230.889C153.039 230.134 216.327 204.97 274.746 176.035C390.282 118.987 503.006 30.1925 634.518 15.5192C732.295 4.617 813.409 51.9969 878 122.347V125.638Z" fill="#F1D199"/>
<path d="M878 116.247C813.409 45.8971 732.295 -1.41428 634.518 9.48789C503.006 24.0241 390.282 113.161 274.746 170.004C216.327 198.87 153.039 224.035 87.0091 224.857C-0.208359 225.886 -71.7239 178.78 -128.84 116.316V113.161C-71.7239 175.42 -0.208359 222.869 87.0091 221.498C153.039 220.743 216.327 195.579 274.746 166.644C390.282 109.596 503.006 20.87 634.518 6.19667C732.295 -4.77407 813.409 42.6058 878 113.161V116.247Z" fill="#F1D199"/>
<path d="M878 106.921C813.409 36.5707 732.295 -10.8092 634.518 0.161519C503.006 14.8349 390.282 103.561 274.746 160.677C216.327 189.544 153.039 214.708 87.0091 215.531C-0.208359 216.559 -71.7239 169.385 -128.84 106.989V103.698C-71.7239 166.094 -0.208359 213.405 87.0091 212.24C153.039 211.485 216.327 186.321 274.746 157.386C390.282 100.27 503.006 11.5437 634.518 -3.40397C732.295 -14.1004 813.409 33.2794 878 103.629V106.921Z" fill="#F1D199"/>
<path d="M878 97.5929C813.409 27.243 732.295 -20.1369 634.518 -9.23472C503.006 5.50722 390.282 94.2331 274.746 151.35C216.327 180.216 153.039 205.38 87.0091 206.203C-0.208359 207.163 -71.7239 160.058 -128.84 97.6615V94.3017C-71.7239 156.766 -0.208359 204.009 87.0091 202.843C153.039 202.089 216.327 176.925 274.746 147.99C390.282 90.9419 503.006 2.14743 634.518 -12.5259C732.295 -23.4281 813.409 24.0204 878 94.2331V97.5929Z" fill="#F1D199"/>
<path d="M878 88.2032C813.409 17.8533 732.295 -29.458 634.518 -18.5559C503.006 -3.88249 390.282 84.912 274.746 141.96C216.327 170.827 153.039 195.991 87.0091 196.814C-0.208359 197.842 -71.7239 150.736 -128.84 88.2718V84.912C-71.7239 147.308 -0.208359 194.619 87.0091 193.454C153.039 192.7 216.327 167.535 274.746 138.6C390.282 81.5522 503.006 -7.17372 634.518 -21.8471C732.295 -32.8178 813.409 14.5621 878 84.912V88.2032Z" fill="#F1D199"/>
<path d="M878 78.8797C813.409 8.52983 732.295 -38.8501 634.518 -27.9479C503.006 -13.206 390.282 75.5199 274.746 132.636C216.327 161.503 153.039 186.667 87.0091 187.49C-0.208359 188.587 -71.7239 141.276 -128.84 78.8797V75.5885C-71.7239 137.985 -0.208359 185.296 87.0091 184.13C153.039 183.376 216.327 158.212 274.746 129.277C390.282 72.023 503.006 -16.4972 634.518 -31.2391C732.295 -42.1413 813.409 5.2386 878 75.5885V78.8797Z" fill="#F1D199"/>
<path d="M878 69.5519C813.409 -0.798031 732.295 -48.1779 634.518 -37.2758C503.006 -22.5338 390.282 66.1921 274.746 123.24C216.327 152.175 153.039 177.271 87.0091 178.094C-0.208359 179.054 -71.7239 131.948 -128.84 69.5519V66.1921C-71.7239 128.657 -0.208359 175.9 87.0091 174.734C153.039 173.98 216.327 148.816 274.746 119.88C390.282 62.9009 503.006 -25.8936 634.518 -40.567C732.295 -51.4006 813.409 -4.15782 878 66.1921V69.5519Z" fill="#F1D199"/>
<path d="M878 60.1581C813.409 -10.2604 732.295 -57.5718 634.518 -46.601C503.006 -31.9276 390.282 56.8668 274.746 113.915C216.327 142.781 153.039 167.946 87.0091 168.768C-0.208359 169.797 -71.7239 122.691 -128.84 60.2266V56.8668C-71.7239 119.263 -0.208359 166.574 87.0091 165.409C153.039 164.654 216.327 139.49 274.746 110.555C390.282 53.507 503.006 -35.2189 634.518 -49.9608C732.295 -60.863 813.409 -13.4831 878 56.8668V60.1581Z" fill="#F1D199"/>
<path d="M878 50.8299C813.409 -19.52 732.295 -66.8999 634.518 -55.9977C503.006 -41.2558 390.282 47.4701 274.746 104.587C216.327 133.453 153.039 158.618 87.0091 159.44C-0.208359 160.332 -71.7239 113.157 -128.84 50.8299V47.5387C-71.7239 109.935 -0.208359 157.246 87.0091 156.012C153.039 155.258 216.327 130.094 274.746 101.158C390.282 44.1789 503.006 -44.547 634.518 -59.2889C732.295 -70.1911 813.409 -22.8112 878 47.5387V50.8299Z" fill="#F1D199"/>
<path d="M878 41.5071C813.409 -28.8428 732.295 -76.2227 634.518 -65.1148C503.006 -50.6471 390.282 38.1473 274.746 95.1952C216.327 124.062 153.039 149.226 87.0091 150.049C-0.208359 151.077 -71.7239 103.972 -128.84 41.5757V38.1473C-71.7239 100.612 -0.208359 147.855 87.0091 146.689C153.039 145.935 216.327 120.771 274.746 91.8354C390.282 34.7875 503.006 -53.9384 634.518 -68.6117C732.295 -79.5825 813.409 -32.2026 878 38.1473V41.5071Z" fill="#F1D199"/>
<path d="M878 32.1146C813.409 -38.2353 732.295 -85.6838 634.518 -74.6445C503.006 -59.9711 390.282 28.7548 274.746 85.7341C216.327 114.601 153.039 139.765 87.0091 140.588C-0.208359 141.616 -71.7239 94.5107 -128.84 32.046V28.8234C-71.7239 91.2195 -0.208359 138.531 87.0091 137.365C153.039 136.611 216.327 111.447 274.746 82.5114C390.282 25.4636 503.006 -63.2623 634.518 -78.0043C732.295 -88.9064 813.409 -41.5265 878 28.8234V32.1146Z" fill="#F1D199"/>
<path d="M878 22.7875C813.409 -47.5625 732.295 -94.9424 634.518 -84.0402C503.006 -69.2982 390.282 19.4277 274.746 76.5441C216.327 105.411 153.039 130.575 87.0091 131.398C-0.208359 132.289 -71.7239 85.1836 -128.84 22.7875V19.4962C-71.7239 81.8923 -0.208359 129.204 87.0091 127.969C153.039 127.215 216.327 102.051 274.746 73.1157C390.282 16.1364 503.006 -72.658 634.518 -87.3314C732.295 -98.2336 813.409 -50.8537 878 19.4962V22.7875Z" fill="#F1D199"/>
<path d="M878 13.3959C813.409 -56.954 732.295 -104.265 634.518 -93.3632C503.006 -78.8269 390.282 10.3104 274.746 67.1525C216.327 96.0193 153.039 121.183 87.0091 122.006C-0.208359 122.966 -71.7239 75.8605 -128.84 13.3959V10.3104C-71.7239 72.5693 -0.208359 120.018 87.0091 118.646C153.039 117.892 216.327 92.7281 274.746 63.7927C390.282 6.74487 503.006 -81.981 634.518 -96.6544C732.295 -107.625 813.409 -60.2452 878 10.3104V13.3959Z" fill="#F1D199"/>
<path d="M878 4.06979C813.409 -66.2801 732.295 -113.66 634.518 -102.689C503.006 -88.0159 390.282 0.710007 274.746 57.8264C216.327 86.6932 153.039 111.857 87.0091 112.68C-0.208359 113.709 -71.7239 66.5345 -128.84 4.13837V0.847145C-71.7239 63.2433 -0.208359 110.555 87.0091 109.389C153.039 108.635 216.327 83.4706 274.746 54.5352C390.282 -2.58121 503.006 -91.3071 634.518 -106.255C732.295 -117.157 813.615 -69.777 878 0.572876V4.06979Z" fill="#F1D199"/>
<path d="M878 -5.25767C813.409 -75.6076 732.295 -122.987 634.518 -112.085C503.006 -97.3434 390.282 -8.61745 274.746 48.499C216.327 77.3658 153.039 102.53 87.0091 103.353C-0.208359 104.244 -71.7239 57.1384 -128.84 -5.25767V-8.61746C-71.7239 53.8472 -0.208359 101.09 87.0091 99.9243C153.039 99.1701 216.327 74.006 274.746 45.0706C390.282 -11.9087 503.006 -100.703 634.518 -115.377C732.295 -126.279 813.409 -78.8302 878 -8.61746V-5.25767Z" fill="#F1D199"/>
<path d="M878 -14.6474C813.409 -84.9973 732.295 -132.309 634.518 -121.406C503.006 -106.733 390.282 -17.9386 274.746 39.1093C216.327 67.976 153.039 93.1402 87.0091 93.963C-0.208359 94.9915 -71.7239 47.8859 -128.84 -14.5788V-17.87C-71.7239 44.5261 -0.208359 91.8374 87.0091 90.6718C153.039 89.9175 216.327 64.7534 274.746 35.818C390.282 -21.2984 503.006 -110.024 634.518 -124.698C732.295 -135.668 813.615 -88.2885 878 -17.9386V-14.6474Z" fill="#F1D199"/>
<path d="M878 -23.9714C813.409 -94.3213 732.295 -141.701 634.518 -130.799C503.006 -116.057 390.282 -27.3311 274.746 29.7853C216.327 58.6521 153.039 83.8162 87.0091 84.639C-0.208359 85.7361 -71.7239 38.4248 -128.84 -23.9714V-27.2626C-71.7239 35.1335 -0.208359 82.4449 87.0091 81.2792C153.039 80.525 216.327 55.3609 274.746 26.4255C390.282 -30.8281 503.006 -119.348 634.518 -134.09C732.295 -144.992 813.615 -97.6125 878 -27.2626V-23.9714Z" fill="#F1D199"/>
<path d="M878 -33.2987C813.409 -103.649 732.295 -151.029 634.518 -140.126C503.006 -125.384 390.282 -36.6585 274.746 20.3894C216.327 49.2561 153.039 74.4203 87.0091 75.2431C-0.208359 76.203 -71.7239 29.0974 -128.84 -33.2987V-36.6585C-71.7239 25.8062 -0.208359 72.9118 87.0091 72.0204C153.039 71.2662 216.327 46.1021 274.746 17.1667C390.282 -39.9497 503.006 -128.744 634.518 -143.418C732.295 -154.251 813.409 -107.008 878 -36.6585V-33.2987Z" fill="#F1D199"/>
<path d="M878 -42.6925C813.409 -113.111 732.295 -160.422 634.518 -149.452C503.006 -134.778 390.282 -45.9838 274.746 11.0641C216.327 39.9309 153.039 65.1636 87.0091 65.8493C-0.208359 66.8778 -71.7239 19.7721 -128.84 -42.6925V-45.9838C-71.7239 16.4124 -0.208359 63.7237 87.0091 62.558C153.039 61.8038 216.327 36.6397 274.746 7.70432C390.282 -49.3435 503.006 -138.069 634.518 -152.811C732.295 -163.714 813.615 -116.334 878 -45.9838V-42.6925Z" fill="#F1D199"/>
<path d="M878 -52.0207C813.409 -122.371 732.295 -169.75 634.518 -158.848C503.006 -144.106 390.282 -55.3805 274.746 1.73598C216.327 30.877 153.039 55.7669 87.0091 56.5211C-0.208359 57.4811 -71.7239 10.3069 -128.84 -52.0207V-55.3119C-71.7239 7.08423 -0.208359 54.3956 87.0091 53.1613C153.039 52.4071 216.327 27.243 274.746 -1.69237C390.282 -58.6717 503.006 -147.398 634.518 -162.14C732.295 -173.042 813.615 -125.662 878 -55.3119V-52.0207Z" fill="#F1D199"/>
<path d="M878 -61.3423C813.409 -131.692 732.295 -179.072 634.518 -167.964C503.006 -153.497 390.282 -64.7021 274.746 -7.65421C216.327 21.2126 153.039 46.3767 87.0091 47.131C-0.208359 48.1595 -71.7239 1.05383 -128.84 -61.3423V-64.7021C-71.7239 -2.2374 -0.208359 44.594 87.0091 43.8397C153.039 43.0855 216.327 17.9214 274.746 -11.014C390.282 -68.1304 503.006 -156.856 634.518 -171.53C732.295 -182.5 813.615 -135.121 878 -64.7706V-61.3423Z" fill="#F1D199"/>
<path d="M878 -70.74C813.409 -141.09 732.295 -188.538 634.518 -177.499C503.006 -162.826 390.282 -74.0998 274.746 -17.1205C216.327 11.8834 153.039 37.0476 87.0091 37.7333C-0.208359 38.7618 -71.7239 -8.34389 -128.84 -70.8086V-74.0998C-71.7239 -11.7037 -0.208359 35.6077 87.0091 34.442C153.039 33.6878 216.327 8.52364 274.746 -20.4117C390.282 -77.5281 503.006 -166.254 634.518 -180.996C732.295 -191.898 813.615 -144.518 878 -74.1683V-70.74Z" fill="#F1D199"/>
<path d="M878 -80.0632C813.409 -150.413 732.295 -197.793 634.518 -186.891C503.006 -172.149 390.282 -83.4229 274.746 -26.3065C216.327 2.56026 153.039 27.7244 87.0091 28.5472C-0.208359 29.5072 -71.7239 -17.5985 -128.84 -79.9946V-83.2858C-71.7239 -20.8897 -0.208359 26.4216 87.0091 25.1874C153.039 24.4332 216.327 -0.730957 274.746 -29.6663C390.282 -86.7142 503.006 -175.509 634.518 -190.182C732.295 -201.084 813.615 -153.704 878 -83.3544V-80.0632Z" fill="#F1D199"/>
<path d="M878 -89.4547C813.409 -159.805 732.295 -207.116 634.518 -196.214C503.006 -181.678 390.282 -92.5402 274.746 -35.6981C216.327 -6.83128 153.039 18.3329 87.0091 19.0871C-0.208359 20.1156 -71.7239 -26.99 -128.84 -89.4547V-92.5402C-71.7239 -30.2812 -0.208359 17.1672 87.0091 15.7959C153.039 15.0416 216.327 -10.1225 274.746 -39.0578C390.282 -96.1057 503.006 -184.832 634.518 -199.505C732.295 -210.476 813.409 -163.096 878 -92.5402V-89.4547Z" fill="#F1D199"/>
<path d="M878 -98.7808C813.41 -169.131 732.295 -216.511 634.518 -205.54C503.006 -190.866 390.282 -102.141 274.746 -45.0241C216.327 -16.1574 153.039 9.00679 87.0093 9.82959C-0.208115 10.721 -71.7237 -36.3847 -128.84 -98.7808V-102.072C-71.7237 -39.6759 -0.208115 7.63545 87.0093 6.4698C153.039 5.71556 216.327 -19.4486 274.746 -48.3839C390.282 -105.432 503.006 -194.158 634.518 -209.105C732.295 -220.008 813.615 -172.628 878 -102.278V-98.7808Z" fill="#F1D199"/>
</g>
<g filter="url(#filter0_f_27_2)">
<rect x="-72.1326" y="102.93" width="834.47" height="449.501" transform="rotate(-8.95432 -72.1326 102.93)" fill="black"/>
</g>
</g>
<defs>
<filter id="filter0_f_27_2" x="-109.133" y="-63.9531" width="968.264" height="647.906" filterUnits="userSpaceOnUse" color-interpolation-filters="sRGB">
<feFlood flood-opacity="0" result="BackgroundImageFix"/>
<feBlend mode="normal" in="SourceGraphic" in2="BackgroundImageFix" result="shape"/>
<feGaussianBlur stdDeviation="18.5" result="effect1_foregroundBlur_27_2"/>
</filter>
<clipPath id="clip0_27_2">
<rect width="750" height="520" fill="white"/>
</clipPath>
</defs>
</svg>
