<svg width="24" height="24" viewBox="0 0 24 24" fill="none" xmlns="http://www.w3.org/2000/svg">
<path d="M8 10V8C7.99997 7.20903 8.23444 6.43581 8.67378 5.77808C9.11312 5.12035 9.73759 4.60764 10.4683 4.30475C11.1989 4.00186 12.003 3.9224 12.7788 4.07641C13.5547 4.23042 14.2674 4.61098 14.827 5.17L16.239 3.754C15.3995 2.91593 14.3304 2.34551 13.1668 2.11483C12.0032 1.88414 10.7974 2.00354 9.70165 2.45793C8.60591 2.91233 7.66944 3.68132 7.01058 4.66775C6.35173 5.65418 6.00006 6.81377 6 8V10H4V22H20V10H8ZM18 20H6V12H18V20Z" fill="#BE9D50"/>
</svg>
