<svg width="24" height="24" viewBox="0 0 24 24" fill="none" xmlns="http://www.w3.org/2000/svg">
<path d="M12 20C13.1046 20 14 19.1046 14 18C14 16.8954 13.1046 16 12 16C10.8954 16 10 16.8954 10 18C10 19.1046 10.8954 20 12 20Z" fill="#BE9D50"/>
<path d="M9.9999 4.14999C6.98724 4.55476 4.16926 5.86731 1.9209 7.91299L3.2669 9.39299C5.14662 7.6813 7.48798 6.55983 9.9999 6.16799V4.14999Z" fill="#BE9D50"/>
<path d="M14 4.14999V6.16799C16.5119 6.55983 18.8533 7.6813 20.733 9.39299L22.079 7.91299C19.8306 5.86731 17.0127 4.55476 14 4.14999Z" fill="#BE9D50"/>
<path d="M9.99991 8.185C7.98801 8.56099 6.12077 9.49046 4.60791 10.869L5.95391 12.349C7.09859 11.3087 8.49208 10.5809 9.99991 10.236V8.185Z" fill="#BE9D50"/>
<path d="M14 8.185V10.236C15.5078 10.5809 16.9013 11.3087 18.046 12.349L19.392 10.869C17.8791 9.49046 16.0119 8.56099 14 8.185V8.185Z" fill="#BE9D50"/>
<path d="M9.9998 12.3C8.99665 12.601 8.07393 13.1235 7.2998 13.829L8.6458 15.308C9.04572 14.9505 9.5036 14.6637 9.9998 14.46V12.3Z" fill="#BE9D50"/>
<path d="M14 12.3V14.462C14.4974 14.6648 14.9567 14.9509 15.358 15.308L16.7 13.826C15.9256 13.1216 15.0029 12.6001 14 12.3V12.3Z" fill="#BE9D50"/>
<path d="M11 3V14.147C11.6605 14.0185 12.3395 14.0185 13 14.147V3H11Z" fill="#BE9D50"/>
</svg>
