<svg width="24" height="24" viewBox="0 0 24 24" fill="none" xmlns="http://www.w3.org/2000/svg">
<g clip-path="url(#clip0_4_526)">
<path d="M12.3 17.4C13.5703 17.4 14.6 18.4297 14.6 19.7C14.6 20.9703 13.5703 22 12.3 22C11.0297 22 10 20.9703 10 19.7C10 18.4297 11.0297 17.4 12.3 17.4Z" fill="#BE9D50"/>
<path d="M12.3 2.00001C13.5703 2.00001 14.6 3.02975 14.6 4.3C14.6 5.57026 13.5703 6.60001 12.3 6.60001C11.0297 6.60001 10 5.57026 10 4.3C10 3.02975 11.0297 2.00001 12.3 2.00001Z" fill="#BE9D50"/>
<path d="M12.3 9.69999C13.5703 9.69999 14.6 10.7297 14.6 12C14.6 13.2702 13.5703 14.3 12.3 14.3C11.0297 14.3 10 13.2702 10 12C10 10.7297 11.0297 9.69999 12.3 9.69999Z" fill="#BE9D50"/>
</g>
<defs>
<clipPath id="clip0_4_526">
<rect width="24" height="24" fill="white"/>
</clipPath>
</defs>
</svg>
