<svg width="24" height="40" viewBox="0 0 24 40" fill="none" xmlns="http://www.w3.org/2000/svg">
<path fill-rule="evenodd" clip-rule="evenodd" d="M19.1401 25.34C19.1801 25.04 19.2001 24.73 19.2001 24.4C19.2001 24.08 19.1801 23.76 19.1301 23.46L21.1601 21.88C21.3401 21.74 21.3901 21.47 21.2801 21.27L19.3601 17.95C19.2401 17.73 18.9901 17.66 18.7701 17.73L16.3801 18.69C15.8801 18.31 15.3501 17.99 14.7601 17.75L14.4001 15.21C14.3601 14.97 14.1601 14.8 13.9201 14.8H10.0801C9.84011 14.8 9.65011 14.97 9.61011 15.21L9.25011 17.75C8.66011 17.99 8.12011 18.32 7.63011 18.69L5.24011 17.73C5.02011 17.65 4.77011 17.73 4.65011 17.95L2.74011 21.27C2.62011 21.48 2.66011 21.74 2.86011 21.88L4.89011 23.46C4.84011 23.76 4.80011 24.09 4.80011 24.4C4.80011 24.71 4.82011 25.04 4.87011 25.34L2.84011 26.92C2.66011 27.06 2.61011 27.33 2.72011 27.53L4.64011 30.85C4.76011 31.07 5.01011 31.14 5.23011 31.07L7.62011 30.11C8.12011 30.49 8.65011 30.81 9.24011 31.05L9.60011 33.59C9.65011 33.83 9.84011 34 10.0801 34H13.9201C14.1601 34 14.3601 33.83 14.3901 33.59L14.7501 31.05C15.3401 30.81 15.8801 30.49 16.3701 30.11L18.7601 31.07C18.9801 31.15 19.2301 31.07 19.3501 30.85L21.2701 27.53C21.3901 27.31 21.3401 27.06 21.1501 26.92L19.1401 25.34ZM12.0001 28C10.0201 28 8.40011 26.38 8.40011 24.4C8.40011 22.42 10.0201 20.8 12.0001 20.8C13.9801 20.8 15.6001 22.42 15.6001 24.4C15.6001 26.38 13.9801 28 12.0001 28Z" fill="#BE9D50"/>
</svg>
