<svg width="24" height="40" viewBox="0 0 24 40" fill="none" xmlns="http://www.w3.org/2000/svg">
<path d="M18.1668 12.4H4.43346V14.1167H18.1668V12.4ZM4.43346 33H18.1668V31.2833H4.43346V33ZM18.1668 15.8333H4.43346C3.4893 15.8333 2.7168 16.6058 2.7168 17.55V27.85C2.7168 28.7942 3.4893 29.5667 4.43346 29.5667H18.1668C19.111 29.5667 19.8835 28.7942 19.8835 27.85V17.55C19.8835 16.6058 19.111 15.8333 18.1668 15.8333ZM11.3001 18.1937C12.3645 18.1937 13.2314 19.0607 13.2314 20.125C13.2314 21.1893 12.3645 22.0562 11.3001 22.0562C10.2358 22.0562 9.36888 21.1893 9.36888 20.125C9.36888 19.0607 10.2358 18.1937 11.3001 18.1937ZM15.5918 26.9917H7.00846V25.7042C7.00846 24.2707 9.86671 23.5583 11.3001 23.5583C12.7335 23.5583 15.5918 24.2707 15.5918 25.7042V26.9917Z" fill="#BE9D50"/>
</svg>
