<svg width="24" height="24" viewBox="0 0 24 24" fill="none" xmlns="http://www.w3.org/2000/svg">
<path d="M8 12C8 14.2 9.8 16 12 16C14.2 16 16 14.2 16 12C16 9.8 14.2 8 12 8C9.8 8 8 9.8 8 12ZM14 12C14 13.1 13.1 14 12 14C10.9 14 10 13.1 10 12C10 10.9 10.9 10 12 10C13.1 10 14 10.9 14 12Z" fill="#BE9D50"/>
<path d="M7 8H5.1C7.3 4.2 12.2 2.9 16 5.1C18.4 6.5 20 9.1 20 12H22C22 6.5 17.5 2 12 2C8.9 2 5.9 3.5 4 6V5H2V10H7V8Z" fill="#BE9D50"/>
<path d="M17 16H18.9C16.7 19.8 11.8 21.1 8 18.9C5.6 17.5 4 14.9 4 12H2C2 17.5 6.5 22 12 22C15.1 22 18.1 20.5 20 18V19H22V14H17V16Z" fill="#BE9D50"/>
</svg>
