<svg width="24" height="24" viewBox="0 0 24 24" fill="none" xmlns="http://www.w3.org/2000/svg">
<path d="M15.2001 10.5H20.3001V5.50001H18.3001V6.70001C15.8001 3.90001 11.7001 3.20001 8.40013 4.90001C5.10013 6.60001 3.30013 10.3 4.20013 13.9C5.10013 17.5 8.40013 20 12.2001 20C14.4001 20 16.5001 19.2 18.0001 17.7L16.6001 16.3C14.8001 18.1 12.0001 18.6 9.70013 17.5C7.40013 16.4 5.90013 14 6.10013 11.5C6.30013 9.00001 8.10013 6.90001 10.6001 6.20001C13.1001 5.50001 15.7001 6.40001 17.2001 8.50001H15.3001V10.5H15.2001V10.5Z" fill="#BE9D50"/>
</svg>
