<svg width="24" height="24" viewBox="0 0 24 24" fill="none" xmlns="http://www.w3.org/2000/svg">
<path d="M8 10V8.00003C7.99997 7.20906 8.23444 6.43584 8.67378 5.77811C9.11312 5.12038 9.73759 4.60767 10.4683 4.30478C11.1989 4.00189 12.003 3.92243 12.7788 4.07644C13.5547 4.23045 14.2674 4.61101 14.827 5.17003L16.239 3.75403C15.3995 2.91596 14.3304 2.34554 13.1668 2.11486C12.0032 1.88417 10.7974 2.00357 9.70165 2.45796C8.60591 2.91236 7.66944 3.68135 7.01058 4.66778C6.35173 5.65421 6.00006 6.8138 6 8.00003V10H4V22H20V10H8ZM18 20H6V12H18V20Z" fill="#BE9D50"/>
</svg>
